<mxfile host="app.diagrams.net" modified="2021-03-09T11:49:37.297Z" agent="5.0 (Windows NT 10.0; Win64; x64) AppleWebKit/537.36 (KHTML, like Gecko) Chrome/88.0.4324.190 Safari/537.36" etag="gRDHln5NIB9SFsWhRVMF" version="14.4.2" type="github">
  <diagram id="URz-DUmyrvIxECsnh-GI" name="第 1 页">
    <mxGraphModel dx="1422" dy="800" grid="1" gridSize="10" guides="1" tooltips="1" connect="1" arrows="1" fold="1" page="1" pageScale="1" pageWidth="827" pageHeight="1169" math="0" shadow="0">
      <root>
        <mxCell id="0" />
        <mxCell id="1" parent="0" />
        <mxCell id="2jtzfwKL91O-vB9ZFpLf-1" value="&lt;b&gt;&lt;font face=&quot;Times New Roman&quot; style=&quot;font-size: 18px&quot;&gt;Dense&lt;br&gt;&amp;nbsp;Block&lt;/font&gt;&lt;/b&gt;" style="rounded=0;whiteSpace=wrap;html=1;" vertex="1" parent="1">
          <mxGeometry x="160" y="220" width="100" height="60" as="geometry" />
        </mxCell>
        <mxCell id="2jtzfwKL91O-vB9ZFpLf-2" value="" style="endArrow=classic;html=1;entryX=0.5;entryY=0;entryDx=0;entryDy=0;" edge="1" parent="1" target="2jtzfwKL91O-vB9ZFpLf-1">
          <mxGeometry width="50" height="50" relative="1" as="geometry">
            <mxPoint x="209.66000000000008" y="140" as="sourcePoint" />
            <mxPoint x="209.66" y="190" as="targetPoint" />
          </mxGeometry>
        </mxCell>
        <mxCell id="2jtzfwKL91O-vB9ZFpLf-3" value="" style="endArrow=classic;html=1;" edge="1" parent="1">
          <mxGeometry width="50" height="50" relative="1" as="geometry">
            <mxPoint x="209.66000000000008" y="279.9999999999999" as="sourcePoint" />
            <mxPoint x="210" y="359.9999999999999" as="targetPoint" />
          </mxGeometry>
        </mxCell>
        <mxCell id="2jtzfwKL91O-vB9ZFpLf-4" value="&lt;font face=&quot;Times New Roman&quot;&gt;&lt;span style=&quot;font-size: 18px&quot;&gt;&lt;b&gt;Transition&lt;/b&gt;&lt;/span&gt;&lt;/font&gt;" style="rounded=0;whiteSpace=wrap;html=1;" vertex="1" parent="1">
          <mxGeometry x="160" y="360" width="100" height="40" as="geometry" />
        </mxCell>
        <mxCell id="2jtzfwKL91O-vB9ZFpLf-5" value="&lt;font size=&quot;1&quot; face=&quot;Times New Roman&quot;&gt;&lt;b style=&quot;font-size: 18px&quot;&gt;Base layer&lt;/b&gt;&lt;/font&gt;" style="rounded=0;whiteSpace=wrap;html=1;" vertex="1" parent="1">
          <mxGeometry x="160" y="100" width="100" height="40" as="geometry" />
        </mxCell>
      </root>
    </mxGraphModel>
  </diagram>
</mxfile>
